<svg width="183" height="159" xmlns="http://www.w3.org/2000/svg" xmlns:xlink="http://www.w3.org/1999/xlink" overflow="hidden"><defs><clipPath id="clip0"><rect x="557" y="253" width="183" height="159"/></clipPath></defs><g clip-path="url(#clip0)" transform="translate(-557 -253)"><path d="M578.954 373.985 631.199 394.979 575.177 404.58Z" fill="#00A8AF" fill-rule="evenodd"/><path d="M570.862 385.094 645.443 255.917 589.501 395.855Z" fill="#00A8AF" fill-rule="evenodd"/><path d="M573.156 381.122 598.453 400.269 557.742 407.819Z" fill="#00A8AF" fill-rule="evenodd"/><path d="M697.958 409.347 690.016 353.606 726.342 397.321Z" fill="#00A8AF" fill-rule="evenodd"/><path d="M712 411 562 411 712 389Z" fill="#00A8AF" fill-rule="evenodd"/><path d="M707 411 710.955 379 738 411Z" fill="#00A8AF" fill-rule="evenodd"/><path d="M669.761 288.711 625.458 323.459 645.154 270.142Z" fill="#00A8AF" fill-rule="evenodd"/><path d="M664.187 276.148 738.767 405.326 645.548 286.909Z" fill="#00A8AF" fill-rule="evenodd"/><path d="M666.48 280.121 637.25 292.456 651.067 253.424Z" fill="#00A8AF" fill-rule="evenodd"/></g></svg>